# xmcd
#
# Track frame offsets:
# 150
# 18905
# 28810
# 45803
# 62965
# 82505
# 102406
# 115320
# 133311
# 151744
#
# Disc length: 2276 seconds
#
#
# Revision: 0
# Processed by: cddbd v1.4PL0 Copyright (c) Steve Scherf et al.
# Submitted via: FreeRIP 2.30 
#
DISCID=7308e20a
DTITLE=Jethro Tull - Stand Up
DYEAR=1973
DGENRE=Blues
TTITLE0=A New Day Yesterday
TTITLE1=Jeffrey Goes To Leicester Square
TTITLE2=Bouree
TTITLE3=Back To The Family
TTITLE4=Look Into The Sun
TTITLE5=Nothing Is Easy
TTITLE6=Fat Man
TTITLE7=We Used To Know
TTITLE8=Reasons For Waiting
TTITLE9=For A Thousand Mothers
EXTD=
EXTT0=
EXTT1=
EXTT2=
EXTT3=
EXTT4=
EXTT5=
EXTT6=
EXTT7=
EXTT8=
EXTT9=
PLAYORDER=
